<svg width="64" height="64" viewBox="0 0 64 64" fill="none" xmlns="http://www.w3.org/2000/svg">
<path d="M32 4C16.53 4 4 16.53 4 32C4 44.39 12.015 54.855 23.145 58.565C24.545 58.81 25.07 57.97 25.07 57.235C25.07 56.57 25.035 54.365 25.035 52.02C18 53.315 16.18 50.305 15.62 48.73C15.305 47.925 13.94 45.44 12.75 44.775C11.77 44.25 10.37 42.955 12.715 42.92C14.92 42.885 16.495 44.95 17.02 45.79C19.54 50.025 23.565 48.835 25.175 48.1C25.42 46.28 26.155 45.055 26.96 44.355C20.73 43.655 14.22 41.24 14.22 30.53C14.22 27.485 15.305 24.965 17.09 23.005C16.81 22.305 15.83 19.435 17.37 15.585C17.37 15.585 19.715 14.85 25.07 18.455C27.31 17.825 29.69 17.51 32.07 17.51C34.45 17.51 36.83 17.825 39.07 18.455C44.425 14.815 46.77 15.585 46.77 15.585C48.31 19.435 47.33 22.305 47.05 23.005C48.835 24.965 49.92 27.45 49.92 30.53C49.92 41.275 43.375 43.655 37.145 44.355C38.16 45.23 39.035 46.91 39.035 49.535C39.035 53.28 39 56.29 39 57.235C39 57.97 39.525 58.845 40.925 58.565C46.4835 56.6885 51.3136 53.1161 54.7354 48.3507C58.1573 43.5852 59.9985 37.8667 60 32C60 16.53 47.47 4 32 4Z" fill="black"/>
</svg>
