<svg width="64" height="64" viewBox="0 0 64 64" fill="none" xmlns="http://www.w3.org/2000/svg">
<path d="M32.0168 59.33L43.0568 25.3525H20.9768L32.0168 59.33Z" fill="#E24329"/>
<path d="M32.0173 59.33L20.9773 25.3525H5.50504L32.0173 59.33Z" fill="#FC6D26"/>
<path d="M5.5046 25.3525L2.14974 35.678C1.84374 36.6197 2.17889 37.6514 2.98003 38.2334L32.0169 59.33L5.5046 25.3525Z" fill="#FCA326"/>
<path d="M5.50523 25.3527H20.9775L14.3281 4.88838C13.9861 3.83524 12.4964 3.83553 12.1544 4.88838L5.50523 25.3527Z" fill="#E24329"/>
<path d="M32.0189 59.33L43.0589 25.3525H58.5312L32.0189 59.33Z" fill="#FC6D26"/>
<path d="M58.5312 25.3525L61.8861 35.678C62.1921 36.6197 61.8569 37.6514 61.0558 38.2334L32.0189 59.33L58.5312 25.3525Z" fill="#FCA326"/>
<path d="M58.5302 25.3527H43.0579L49.7073 4.88838C50.0493 3.83524 51.5391 3.83553 51.8811 4.88838L58.5302 25.3527Z" fill="#E24329"/>
</svg>
