<svg width="64" height="64" viewBox="0 0 64 64" fill="none" xmlns="http://www.w3.org/2000/svg">
<path d="M37.1189 4.16528L37.0933 16.4864L37.0677 28.8074L35.8916 25.9472V25.9399L34.3661 53.3689C35.8661 57.0066 36.6672 58.9501 36.6757 58.9574C36.6842 58.9647 37.5365 59.0087 38.5677 59.0527C41.687 59.1848 45.5562 59.4708 48.4965 59.7861C49.1783 59.8595 49.7579 59.8961 49.8005 59.8668C49.8431 59.8375 49.8516 47.2964 49.8431 31.9904L49.8175 4.16528H37.1189V4.16528Z" fill="url(#paint0_linear_2_16010)"/>
<path d="M14.1475 4.12843V31.9829C14.1475 47.3036 14.1646 59.8521 14.1901 59.8741C14.2157 59.8961 15.3151 59.8008 16.6446 59.6761C17.9742 59.5514 19.8065 59.39 20.7184 59.324C22.1161 59.2214 26.3093 58.994 26.7865 58.9867C26.9314 58.9867 26.9399 58.3633 26.957 47.1863L26.9825 35.3859L27.9967 37.8501C28.1501 38.2315 28.2013 38.3488 28.3547 38.7229L29.8802 11.3011C29.5564 10.5163 29.7268 10.927 29.3603 10.0323C28.116 7.00335 27.0592 4.44379 27.0166 4.32644L26.9314 4.12109H14.1475V4.12843Z" fill="url(#paint1_linear_2_16010)"/>
<path d="M14.1475 4.12843L26.9741 35.4077V35.393L27.9883 37.8572C33.6217 51.5791 36.6473 58.9423 36.6643 58.957C36.6728 58.9643 37.5251 59.0083 38.5563 59.0524C41.6756 59.1844 45.5449 59.4704 48.4852 59.7857C49.1585 59.8591 49.7466 59.8958 49.7807 59.8664L37.0649 28.7998V28.8072L35.8888 25.9469C34.7382 23.1527 33.9712 21.2825 29.3434 10.0323C28.0991 7.00334 27.0423 4.44379 26.9997 4.32644L26.9144 4.12109H20.531L14.1475 4.12843Z" fill="#E30A17"/>
<defs>
<linearGradient id="paint0_linear_2_16010" x1="55.5705" y1="45.8208" x2="35.2459" y2="54.7466" gradientUnits="userSpaceOnUse">
<stop stop-color="#B20610"/>
<stop offset="0.255959" stop-color="#B20610"/>
<stop offset="1" stop-color="#590004"/>
</linearGradient>
<linearGradient id="paint1_linear_2_16010" x1="7.98416" y1="16.3423" x2="29.9646" y2="6.80077" gradientUnits="userSpaceOnUse">
<stop stop-color="#B20610"/>
<stop offset="0.255959" stop-color="#B20610"/>
<stop offset="1" stop-color="#590004"/>
</linearGradient>
</defs>
</svg>
