<svg width="64" height="64" viewBox="0 0 64 64" fill="none" xmlns="http://www.w3.org/2000/svg">
<circle cx="32" cy="32" r="28" fill="#1ED760"/>
<path d="M44.7287 43.2459C44.2503 44.005 43.2298 44.2175 42.4325 43.7621C36.1499 40.1187 28.2727 39.2989 18.9605 41.3028C18.0675 41.4849 17.1746 40.9688 16.9832 40.1187C16.7919 39.2685 17.334 38.4184 18.227 38.2362C28.4003 36.0198 37.1385 36.961 44.1546 41.0599C44.9519 41.5153 45.2071 42.4869 44.7287 43.2459ZM47.9816 36.3234C47.3757 37.2647 46.1 37.5379 45.1114 36.9914C37.9358 32.7711 26.9971 31.5567 18.514 34.016C17.3978 34.3196 16.2497 33.7427 15.9308 32.7104C15.6119 31.6477 16.2178 30.5547 17.334 30.2511C27.029 27.4578 39.0839 28.7937 47.3438 33.6213C48.2686 34.1678 48.5875 35.3822 47.9816 36.3234ZM48.2686 29.0974C39.658 24.2395 25.4663 23.7841 17.2383 26.1523C15.9308 26.547 14.5276 25.8487 14.113 24.5735C13.6984 23.3286 14.4638 21.9927 15.7713 21.598C25.2112 18.8655 40.9017 19.412 50.788 24.9985C51.968 25.6665 52.3507 27.1239 51.6491 28.2472C50.9794 29.401 49.4486 29.7957 48.2686 29.0974Z" fill="white"/>
</svg>
